# xmcd CD database file
#
# Track frame offsets:
#	150
#	40057
#	73670
#	109067
#	129595
#
# Disc length: 2107 seconds
#
# Revision: 0
# Processed by: cddbd v1.5.2PL0 Copyright (c) Steve Scherf et al.
# Submitted via: CDex 1.70beta2
#
DISCID=40083905
DTITLE=富樫雅彦 - Spiritual Moments
DYEAR=1981
DGENRE=Jazz
TTITLE0=It's Freedom Life
TTITLE1=The Window
TTITLE2=Poem In The Shadow
TTITLE3=Steps
TTITLE4=The Crust
EXTD=YEAR: 1981
EXTT0=
EXTT1=
EXTT2=
EXTT3=
EXTT4=
PLAYORDER=
